<svg width="15" height="15" viewBox="0 0 15 15" fill="none" xmlns="http://www.w3.org/2000/svg">
<path id="Vector" d="M7.5 15C11.6426 15 15 11.6426 15 7.5C15 3.35742 11.6426 0 7.5 0C3.35742 0 0 3.35742 0 7.5C0 11.6426 3.35742 15 7.5 15ZM7.5 3.75C7.88965 3.75 8.20312 4.06348 8.20312 4.45312V7.73438C8.20312 8.12402 7.88965 8.4375 7.5 8.4375C7.11035 8.4375 6.79688 8.12402 6.79688 7.73438V4.45312C6.79688 4.06348 7.11035 3.75 7.5 3.75ZM8.4375 10.3125C8.4375 10.8311 8.01855 11.25 7.5 11.25C6.98145 11.25 6.5625 10.8311 6.5625 10.3125C6.5625 9.79395 6.98145 9.375 7.5 9.375C8.01855 9.375 8.4375 9.79395 8.4375 10.3125Z" fill="#686B6D"/>
</svg>
