<svg width="22" height="22" viewBox="0 0 22 22" fill="none" xmlns="http://www.w3.org/2000/svg">
<path id="Vector" d="M3.55762 2.62919C4.88865 1.45838 6.51546 0.616216 8.31071 0.230054C8.46271 0.784649 8.54487 1.368 8.54487 1.97189C8.54487 3.54941 7.99027 4.99957 7.06184 6.13341L3.55762 2.62919ZM2.62919 3.55762L6.1293 7.05773C4.99957 7.99027 3.54941 8.54487 1.97189 8.54487C1.368 8.54487 0.784649 8.46271 0.230054 8.31071C0.616216 6.51546 1.45838 4.88865 2.62919 3.55762ZM10.5168 0C13.1829 0 15.619 0.994162 17.4759 2.62919L10.5168 9.58833L7.99438 7.06595C9.15698 5.68973 9.85946 3.91503 9.85946 1.97189C9.85946 1.30638 9.7773 0.657298 9.62119 0.036973C9.91698 0.0123243 10.2169 0 10.5168 0ZM1.97189 9.85946C3.91503 9.85946 5.68973 9.15698 7.06595 7.99438L9.58833 10.5168L2.62919 17.4759C0.994162 15.619 0 13.1829 0 10.5168C0 10.2169 0.0123243 9.91698 0.036973 9.62119C0.657298 9.7773 1.30638 9.85946 1.97189 9.85946ZM20.9965 11.4123C20.3762 11.2562 19.7271 11.1741 19.0616 11.1741C17.1185 11.1741 15.3438 11.8765 13.9676 13.0391L11.4452 10.5168L18.4043 3.55762C20.0394 5.41038 21.0335 7.84649 21.0335 10.5168C21.0335 10.8167 21.0212 11.1165 20.9965 11.4123ZM20.8035 12.7228C20.4173 14.5181 19.5751 16.1449 18.4043 17.4759L14.9042 13.9758C16.034 13.0432 17.4841 12.4887 19.0616 12.4887C19.6655 12.4887 20.2489 12.5708 20.8035 12.7228V12.7228ZM13.9717 14.9001L17.4759 18.4043C16.1449 19.5751 14.5181 20.4173 12.7228 20.8035C12.5708 20.2489 12.4887 19.6655 12.4887 19.0616C12.4887 17.4841 13.0432 16.034 13.9717 14.9001ZM13.0391 13.9676C11.8765 15.3438 11.1741 17.1185 11.1741 19.0616C11.1741 19.7271 11.2562 20.3762 11.4123 20.9965C11.1165 21.0212 10.8167 21.0335 10.5168 21.0335C7.8506 21.0335 5.41449 20.0394 3.55762 18.4043L10.5168 11.4452L13.0391 13.9676Z" fill="white"/>
</svg>
