<svg width="19" height="19" viewBox="0 0 19 19" fill="none" xmlns="http://www.w3.org/2000/svg">
<path id="Vector" d="M3.06894 2.26804C4.21714 1.25805 5.62049 0.531572 7.16914 0.198454C7.30026 0.676869 7.37113 1.18009 7.37113 1.70103C7.37113 3.06186 6.89272 4.31282 6.09182 5.29091L3.06894 2.26804ZM2.26804 3.06894L5.28737 6.08827C4.31282 6.89272 3.06186 7.37113 1.70103 7.37113C1.18009 7.37113 0.676869 7.30026 0.198454 7.16914C0.531572 5.62049 1.25805 4.21714 2.26804 3.06894ZM9.07216 0C11.3721 0 13.4736 0.857603 15.0754 2.26804L9.07216 8.27126L6.89626 6.09536C7.89916 4.90818 8.50515 3.37725 8.50515 1.70103C8.50515 1.12693 8.43428 0.56701 8.29961 0.0318943C8.55477 0.0106314 8.81347 0 9.07216 0ZM1.70103 8.50515C3.37725 8.50515 4.90818 7.89916 6.09536 6.89626L8.27126 9.07216L2.26804 15.0754C0.857603 13.4736 0 11.3721 0 9.07216C0 8.81347 0.0106314 8.55477 0.0318943 8.29961C0.56701 8.43428 1.12693 8.50515 1.70103 8.50515ZM18.1124 9.84472C17.5773 9.71005 17.0174 9.63917 16.4433 9.63917C14.7671 9.63917 13.2361 10.2452 12.049 11.2481L9.87307 9.07216L15.8763 3.06894C17.2867 4.6672 18.1443 6.76869 18.1443 9.07216C18.1443 9.33086 18.1337 9.58956 18.1124 9.84472ZM17.9459 10.9752C17.6128 12.5238 16.8863 13.9272 15.8763 15.0754L12.857 12.0561C13.8315 11.2516 15.0825 10.7732 16.4433 10.7732C16.9642 10.7732 17.4675 10.8441 17.9459 10.9752V10.9752ZM12.0525 12.8534L15.0754 15.8763C13.9272 16.8863 12.5238 17.6128 10.9752 17.9459C10.8441 17.4675 10.7732 16.9642 10.7732 16.4433C10.7732 15.0825 11.2516 13.8315 12.0525 12.8534ZM11.2481 12.049C10.2452 13.2361 9.63917 14.7671 9.63917 16.4433C9.63917 17.0174 9.71005 17.5773 9.84472 18.1124C9.58956 18.1337 9.33086 18.1443 9.07216 18.1443C6.77223 18.1443 4.67075 17.2867 3.06894 15.8763L9.07216 9.87307L11.2481 12.049Z" fill="#686B6D"/>
</svg>
