<svg width="14" height="17" viewBox="0 0 14 17" fill="none" xmlns="http://www.w3.org/2000/svg">
<g id="bell-solid (2) 2" clip-path="url(#clip0_440_404)">
<path id="Vector" d="M6.9994 0C6.44628 0 5.9994 0.474805 5.9994 1.0625V1.7C3.71815 2.19141 1.9994 4.33633 1.9994 6.90625V7.53047C1.9994 9.09102 1.45878 10.5984 0.483777 11.7672L0.252527 12.0428C-0.00997317 12.3549 -0.0724732 12.8031 0.0869018 13.185C0.246277 13.5668 0.605652 13.8125 0.999402 13.8125H12.9994C13.3932 13.8125 13.7494 13.5668 13.9119 13.185C14.0744 12.8031 14.0088 12.3549 13.7463 12.0428L13.515 11.7672C12.54 10.5984 11.9994 9.09434 11.9994 7.53047V6.90625C11.9994 4.33633 10.2807 2.19141 7.9994 1.7V1.0625C7.9994 0.474805 7.55253 0 6.9994 0ZM8.41503 16.3791C8.79003 15.9807 8.9994 15.4395 8.9994 14.875H6.9994H4.9994C4.9994 15.4395 5.20878 15.9807 5.58378 16.3791C5.95878 16.7775 6.46815 17 6.9994 17C7.53065 17 8.04003 16.7775 8.41503 16.3791Z" fill="#686B6D"/>
</g>
<defs>
<clipPath id="clip0_440_404">
<rect width="14" height="17" fill="white"/>
</clipPath>
</defs>
</svg>
