<svg width="14" height="19" viewBox="0 0 14 19" fill="none" xmlns="http://www.w3.org/2000/svg">
<path id="Vector" d="M2.75047 0.488281C1.52428 0.488281 0.527344 1.50787 0.527344 2.76194V16.4039C0.527344 17.6579 1.52428 18.6775 2.75047 18.6775H11.643C12.8692 18.6775 13.8661 17.6579 13.8661 16.4039V2.76194C13.8661 1.50787 12.8692 0.488281 11.643 0.488281H2.75047ZM3.86204 2.76194H10.5314C11.1463 2.76194 11.643 3.26996 11.643 3.89876V5.03559C11.643 5.6644 11.1463 6.17242 10.5314 6.17242H3.86204C3.2472 6.17242 2.75047 5.6644 2.75047 5.03559V3.89876C2.75047 3.26996 3.2472 2.76194 3.86204 2.76194ZM2.75047 8.44608C2.75047 7.81727 3.2472 7.30925 3.86204 7.30925C4.47687 7.30925 4.9736 7.81727 4.9736 8.44608C4.9736 9.07488 4.47687 9.5829 3.86204 9.5829C3.2472 9.5829 2.75047 9.07488 2.75047 8.44608ZM3.86204 10.7197C4.47687 10.7197 4.9736 11.2278 4.9736 11.8566C4.9736 12.4854 4.47687 12.9934 3.86204 12.9934C3.2472 12.9934 2.75047 12.4854 2.75047 11.8566C2.75047 11.2278 3.2472 10.7197 3.86204 10.7197ZM2.75047 15.267C2.75047 14.6382 3.2472 14.1302 3.86204 14.1302H7.19673C7.81157 14.1302 8.3083 14.6382 8.3083 15.267C8.3083 15.8958 7.81157 16.4039 7.19673 16.4039H3.86204C3.2472 16.4039 2.75047 15.8958 2.75047 15.267ZM7.19673 7.30925C7.81157 7.30925 8.3083 7.81727 8.3083 8.44608C8.3083 9.07488 7.81157 9.5829 7.19673 9.5829C6.5819 9.5829 6.08517 9.07488 6.08517 8.44608C6.08517 7.81727 6.5819 7.30925 7.19673 7.30925ZM6.08517 11.8566C6.08517 11.2278 6.5819 10.7197 7.19673 10.7197C7.81157 10.7197 8.3083 11.2278 8.3083 11.8566C8.3083 12.4854 7.81157 12.9934 7.19673 12.9934C6.5819 12.9934 6.08517 12.4854 6.08517 11.8566ZM10.5314 7.30925C11.1463 7.30925 11.643 7.81727 11.643 8.44608C11.643 9.07488 11.1463 9.5829 10.5314 9.5829C9.91659 9.5829 9.41986 9.07488 9.41986 8.44608C9.41986 7.81727 9.91659 7.30925 10.5314 7.30925ZM9.41986 11.8566C9.41986 11.2278 9.91659 10.7197 10.5314 10.7197C11.1463 10.7197 11.643 11.2278 11.643 11.8566C11.643 12.4854 11.1463 12.9934 10.5314 12.9934C9.91659 12.9934 9.41986 12.4854 9.41986 11.8566ZM10.5314 14.1302C11.1463 14.1302 11.643 14.6382 11.643 15.267C11.643 15.8958 11.1463 16.4039 10.5314 16.4039C9.91659 16.4039 9.41986 15.8958 9.41986 15.267C9.41986 14.6382 9.91659 14.1302 10.5314 14.1302Z" fill="#767C86" fill-opacity="0.56"/>
</svg>
