<svg width="15" height="19" viewBox="0 0 15 19" fill="none" xmlns="http://www.w3.org/2000/svg">
<path id="Vector" d="M3.0493 0C1.82311 0 0.826172 1.01959 0.826172 2.27366V15.9156C0.826172 17.1697 1.82311 18.1892 3.0493 18.1892H11.9418C13.168 18.1892 14.1649 17.1697 14.1649 15.9156V2.27366C14.1649 1.01959 13.168 0 11.9418 0H3.0493ZM4.16087 2.27366H10.8303C11.4451 2.27366 11.9418 2.78168 11.9418 3.41048V4.54731C11.9418 5.17612 11.4451 5.68414 10.8303 5.68414H4.16087C3.54603 5.68414 3.0493 5.17612 3.0493 4.54731V3.41048C3.0493 2.78168 3.54603 2.27366 4.16087 2.27366ZM3.0493 7.95779C3.0493 7.32899 3.54603 6.82097 4.16087 6.82097C4.7757 6.82097 5.27243 7.32899 5.27243 7.95779C5.27243 8.5866 4.7757 9.09462 4.16087 9.09462C3.54603 9.09462 3.0493 8.5866 3.0493 7.95779ZM4.16087 10.2314C4.7757 10.2314 5.27243 10.7395 5.27243 11.3683C5.27243 11.9971 4.7757 12.5051 4.16087 12.5051C3.54603 12.5051 3.0493 11.9971 3.0493 11.3683C3.0493 10.7395 3.54603 10.2314 4.16087 10.2314ZM3.0493 14.7788C3.0493 14.15 3.54603 13.6419 4.16087 13.6419H7.49556C8.11039 13.6419 8.60713 14.15 8.60713 14.7788C8.60713 15.4076 8.11039 15.9156 7.49556 15.9156H4.16087C3.54603 15.9156 3.0493 15.4076 3.0493 14.7788ZM7.49556 6.82097C8.11039 6.82097 8.60713 7.32899 8.60713 7.95779C8.60713 8.5866 8.11039 9.09462 7.49556 9.09462C6.88073 9.09462 6.384 8.5866 6.384 7.95779C6.384 7.32899 6.88073 6.82097 7.49556 6.82097ZM6.384 11.3683C6.384 10.7395 6.88073 10.2314 7.49556 10.2314C8.11039 10.2314 8.60713 10.7395 8.60713 11.3683C8.60713 11.9971 8.11039 12.5051 7.49556 12.5051C6.88073 12.5051 6.384 11.9971 6.384 11.3683ZM10.8303 6.82097C11.4451 6.82097 11.9418 7.32899 11.9418 7.95779C11.9418 8.5866 11.4451 9.09462 10.8303 9.09462C10.2154 9.09462 9.71869 8.5866 9.71869 7.95779C9.71869 7.32899 10.2154 6.82097 10.8303 6.82097ZM9.71869 11.3683C9.71869 10.7395 10.2154 10.2314 10.8303 10.2314C11.4451 10.2314 11.9418 10.7395 11.9418 11.3683C11.9418 11.9971 11.4451 12.5051 10.8303 12.5051C10.2154 12.5051 9.71869 11.9971 9.71869 11.3683ZM10.8303 13.6419C11.4451 13.6419 11.9418 14.15 11.9418 14.7788C11.9418 15.4076 11.4451 15.9156 10.8303 15.9156C10.2154 15.9156 9.71869 15.4076 9.71869 14.7788C9.71869 14.15 10.2154 13.6419 10.8303 13.6419Z" fill="#F53CA0"/>
</svg>
