<svg width="21" height="19" viewBox="0 0 21 19" fill="none" xmlns="http://www.w3.org/2000/svg">
<path id="Vector" d="M2.625 0.3125C1.17715 0.3125 0 1.48965 0 2.9375V16.0625C0 17.5104 1.17715 18.6875 2.625 18.6875H18.375C19.8229 18.6875 21 17.5104 21 16.0625V6.875C21 5.42715 19.8229 4.25 18.375 4.25H3.28125C2.92031 4.25 2.625 3.95469 2.625 3.59375C2.625 3.23281 2.92031 2.9375 3.28125 2.9375H18.375C19.101 2.9375 19.6875 2.35098 19.6875 1.625C19.6875 0.899023 19.101 0.3125 18.375 0.3125H2.625ZM17.0625 12.7812C16.3365 12.7812 15.75 12.1947 15.75 11.4688C15.75 10.7428 16.3365 10.1562 17.0625 10.1562C17.7885 10.1562 18.375 10.7428 18.375 11.4688C18.375 12.1947 17.7885 12.7812 17.0625 12.7812Z" fill="#EDF5FF"/>
</svg>
