<svg width="16" height="16" viewBox="0 0 16 16" fill="none" xmlns="http://www.w3.org/2000/svg">
<path id="Vector" d="M5.8981 2.29273C5.8981 1.41406 6.59643 0.701172 7.45718 0.701172H8.49656C9.3573 0.701172 10.0556 1.41406 10.0556 2.29273V13.9642C10.0556 14.8428 9.3573 15.5557 8.49656 15.5557H7.45718C6.59643 15.5557 5.8981 14.8428 5.8981 13.9642V2.29273ZM0.701172 8.65897C0.701172 7.78029 1.39951 7.06741 2.26025 7.06741H3.29963C4.16038 7.06741 4.85871 7.78029 4.85871 8.65897V13.9642C4.85871 14.8428 4.16038 15.5557 3.29963 15.5557H2.26025C1.39951 15.5557 0.701172 14.8428 0.701172 13.9642V8.65897ZM12.6541 2.82325H13.6935C14.5542 2.82325 15.2526 3.53614 15.2526 4.41481V13.9642C15.2526 14.8428 14.5542 15.5557 13.6935 15.5557H12.6541C11.7934 15.5557 11.095 14.8428 11.095 13.9642V4.41481C11.095 3.53614 11.7934 2.82325 12.6541 2.82325Z" fill="#939393" fill-opacity="0.56"/>
</svg>
