<svg width="15" height="16" viewBox="0 0 15 16" fill="none" xmlns="http://www.w3.org/2000/svg">
<path id="Vector" d="M5.19693 1.80445C5.19693 0.925776 5.89526 0.212891 6.756 0.212891H7.79539C8.65613 0.212891 9.35447 0.925776 9.35447 1.80445V13.4759C9.35447 14.3546 8.65613 15.0674 7.79539 15.0674H6.756C5.89526 15.0674 5.19693 14.3546 5.19693 13.4759V1.80445ZM0 8.17068C0 7.29201 0.698337 6.57913 1.55908 6.57913H2.59846C3.4592 6.57913 4.15754 7.29201 4.15754 8.17068V13.4759C4.15754 14.3546 3.4592 15.0674 2.59846 15.0674H1.55908C0.698337 15.0674 0 14.3546 0 13.4759V8.17068ZM11.9529 2.33497H12.9923C13.8531 2.33497 14.5514 3.04785 14.5514 3.92653V13.4759C14.5514 14.3546 13.8531 15.0674 12.9923 15.0674H11.9529C11.0922 15.0674 10.3939 14.3546 10.3939 13.4759V3.92653C10.3939 3.04785 11.0922 2.33497 11.9529 2.33497Z" fill="#51565D"/>
</svg>
