<svg width="26" height="22" viewBox="0 0 26 22" fill="none" xmlns="http://www.w3.org/2000/svg">
<path id="Vector" d="M10.1924 1.10077C9.57713 0.459901 8.57935 0.459901 7.96018 1.10077L0.70361 8.65969C0.0883799 9.30055 0.0883799 10.3399 0.70361 10.9849L7.96018 18.5438C8.57541 19.1847 9.57318 19.1847 10.1924 18.5438L17.4489 10.9849C18.0642 10.344 18.0642 9.30466 17.4489 8.65969L10.1924 1.10077V1.10077ZM10.0228 9.82228C10.0228 10.3687 9.60079 10.8082 9.07627 10.8082C8.55174 10.8082 8.12976 10.3687 8.12976 9.82228C8.12976 9.2759 8.55174 8.83634 9.07627 8.83634C9.60079 8.83634 10.0228 9.2759 10.0228 9.82228ZM4.02822 10.8082C3.5037 10.8082 3.08171 10.3687 3.08171 9.82228C3.08171 9.2759 3.5037 8.83634 4.02822 8.83634C4.55274 8.83634 4.97473 9.2759 4.97473 9.82228C4.97473 10.3687 4.55274 10.8082 4.02822 10.8082ZM9.07627 14.0947C9.60079 14.0947 10.0228 14.5343 10.0228 15.0807C10.0228 15.627 9.60079 16.0666 9.07627 16.0666C8.55174 16.0666 8.12976 15.627 8.12976 15.0807C8.12976 14.5343 8.55174 14.0947 9.07627 14.0947ZM14.1243 10.8082C13.5998 10.8082 13.1778 10.3687 13.1778 9.82228C13.1778 9.2759 13.5998 8.83634 14.1243 8.83634C14.6488 8.83634 15.0708 9.2759 15.0708 9.82228C15.0708 10.3687 14.6488 10.8082 14.1243 10.8082ZM9.07627 3.57796C9.60079 3.57796 10.0228 4.01752 10.0228 4.5639C10.0228 5.11028 9.60079 5.54985 9.07627 5.54985C8.55174 5.54985 8.12976 5.11028 8.12976 4.5639C8.12976 4.01752 8.55174 3.57796 9.07627 3.57796ZM12.8623 19.6817C12.8623 20.7704 13.7102 21.6536 14.7553 21.6536H23.5894C24.6345 21.6536 25.4824 20.7704 25.4824 19.6817V10.4796C25.4824 9.39093 24.6345 8.50769 23.5894 8.50769H18.8766C19.405 9.61277 19.2236 10.9931 18.3402 11.9133L12.8623 17.6195V19.6817ZM19.1724 16.0666C18.6478 16.0666 18.2258 15.627 18.2258 15.0807C18.2258 14.5343 18.6478 14.0947 19.1724 14.0947C19.6969 14.0947 20.1189 14.5343 20.1189 15.0807C20.1189 15.627 19.6969 16.0666 19.1724 16.0666Z" fill="white"/>
</svg>
