<svg width="26" height="22" viewBox="0 0 26 22" fill="none" xmlns="http://www.w3.org/2000/svg">
<path id="Vector" d="M9.95017 0.480649C9.33494 -0.160216 8.33716 -0.160216 7.71799 0.480649L0.461423 8.03957C-0.153808 8.68043 -0.153808 9.71979 0.461423 10.3648L7.71799 17.9237C8.33322 18.5645 9.331 18.5645 9.95017 17.9237L17.2067 10.3648C17.822 9.72389 17.822 8.68454 17.2067 8.03957L9.95017 0.480649V0.480649ZM9.78059 9.20216C9.78059 9.74854 9.3586 10.1881 8.83408 10.1881C8.30956 10.1881 7.88757 9.74854 7.88757 9.20216C7.88757 8.65579 8.30956 8.21622 8.83408 8.21622C9.3586 8.21622 9.78059 8.65579 9.78059 9.20216ZM3.78603 10.1881C3.26151 10.1881 2.83953 9.74854 2.83953 9.20216C2.83953 8.65579 3.26151 8.21622 3.78603 8.21622C4.31056 8.21622 4.73254 8.65579 4.73254 9.20216C4.73254 9.74854 4.31056 10.1881 3.78603 10.1881ZM8.83408 13.4746C9.3586 13.4746 9.78059 13.9142 9.78059 14.4605C9.78059 15.0069 9.3586 15.4465 8.83408 15.4465C8.30956 15.4465 7.88757 15.0069 7.88757 14.4605C7.88757 13.9142 8.30956 13.4746 8.83408 13.4746ZM13.8821 10.1881C13.3576 10.1881 12.9356 9.74854 12.9356 9.20216C12.9356 8.65579 13.3576 8.21622 13.8821 8.21622C14.4066 8.21622 14.8286 8.65579 14.8286 9.20216C14.8286 9.74854 14.4066 10.1881 13.8821 10.1881ZM8.83408 2.95784C9.3586 2.95784 9.78059 3.39741 9.78059 3.94378C9.78059 4.49016 9.3586 4.92973 8.83408 4.92973C8.30956 4.92973 7.88757 4.49016 7.88757 3.94378C7.88757 3.39741 8.30956 2.95784 8.83408 2.95784ZM12.6201 19.0616C12.6201 20.1503 13.468 21.0335 14.5131 21.0335H23.3472C24.3923 21.0335 25.2402 20.1503 25.2402 19.0616V9.85946C25.2402 8.77081 24.3923 7.88757 23.3472 7.88757H18.6344C19.1629 8.99265 18.9814 10.373 18.098 11.2932L12.6201 16.9994V19.0616ZM18.9302 15.4465C18.4056 15.4465 17.9837 15.0069 17.9837 14.4605C17.9837 13.9142 18.4056 13.4746 18.9302 13.4746C19.4547 13.4746 19.8767 13.9142 19.8767 14.4605C19.8767 15.0069 19.4547 15.4465 18.9302 15.4465Z" fill="#939393"/>
</svg>
