<svg width="21" height="21" viewBox="0 0 21 21" fill="none" xmlns="http://www.w3.org/2000/svg">
<path id="Vector" d="M13.3998 16.558C12.4934 16.8861 11.5172 17.0625 10.5 17.0625C9.48281 17.0625 8.50254 16.882 7.6002 16.558C7.58789 16.5539 7.57969 16.5498 7.56738 16.5457C6.33691 16.0945 5.2377 15.3686 4.34355 14.4375C2.87109 12.9035 1.96875 10.824 1.96875 8.53125C1.96875 3.81855 5.7873 0 10.5 0C15.2127 0 19.0312 3.81855 19.0312 8.53125C19.0312 10.824 18.1289 12.9035 16.6564 14.4375C16.6154 14.4785 16.5744 14.5236 16.5334 14.5646C15.6557 15.4424 14.5893 16.1273 13.4039 16.558H13.3998ZM10.5 3.76934C10.0447 3.76934 9.67559 4.13848 9.67559 4.59375V4.83984C9.4459 4.88906 9.22852 4.95879 9.02344 5.04902C8.4082 5.32793 7.8791 5.84473 7.74785 6.59531C7.67402 7.01367 7.71504 7.41563 7.8873 7.78477C8.05957 8.1457 8.32617 8.4 8.59688 8.58457C9.07266 8.90859 9.70019 9.09727 10.1801 9.24082L10.2703 9.26953C10.8404 9.4418 11.2301 9.57305 11.4721 9.74941C11.5746 9.82324 11.6115 9.88066 11.6279 9.91348C11.6402 9.94629 11.6648 10.0201 11.6361 10.1883C11.6115 10.3318 11.5336 10.4508 11.308 10.5492C11.0578 10.6559 10.6518 10.7092 10.1268 10.6271C9.88066 10.5861 9.4418 10.4385 9.05215 10.3031C8.96191 10.2744 8.87578 10.2416 8.78965 10.217C8.35898 10.0734 7.89551 10.3072 7.75195 10.7379C7.6084 11.1686 7.84219 11.632 8.27285 11.7756C8.32207 11.792 8.38359 11.8125 8.45332 11.8371C8.77734 11.9479 9.28594 12.1201 9.67559 12.2104V12.4688C9.67559 12.924 10.0447 13.2932 10.5 13.2932C10.9553 13.2932 11.3244 12.924 11.3244 12.4688V12.2432C11.5459 12.2021 11.7551 12.1406 11.9561 12.0545C12.6 11.7797 13.1209 11.2465 13.2521 10.4672C13.326 10.0406 13.2932 9.63457 13.1291 9.26133C12.9691 8.89219 12.7107 8.62148 12.4359 8.42051C11.9355 8.05957 11.2752 7.85859 10.7789 7.70684L10.7461 7.69863C10.1637 7.52227 9.76992 7.39922 9.51973 7.23105C9.41309 7.15723 9.38027 7.10801 9.37207 7.0875C9.36387 7.0752 9.34336 7.02188 9.36797 6.88242C9.38027 6.80449 9.4459 6.66914 9.7043 6.5502C9.9668 6.43125 10.377 6.36563 10.8773 6.44355C11.0537 6.47227 11.6115 6.57891 11.7674 6.61992C12.2062 6.73477 12.6533 6.47637 12.7723 6.0375C12.8912 5.59863 12.6287 5.15156 12.1898 5.03262C12.0094 4.9834 11.5992 4.90137 11.3285 4.85215V4.59375C11.3285 4.13848 10.9594 3.76934 10.5041 3.76934H10.5ZM1.96875 14.4375H2.625C3.4248 15.4998 4.42969 16.3939 5.58633 17.0625H2.625V18.375H10.5H18.375V17.0625H15.4137C16.5703 16.3939 17.5793 15.4998 18.375 14.4375H19.0312C20.1182 14.4375 21 15.3193 21 16.4062V19.0312C21 20.1182 20.1182 21 19.0312 21H1.96875C0.881836 21 0 20.1182 0 19.0312V16.4062C0 15.3193 0.881836 14.4375 1.96875 14.4375Z" fill="#7F8D9A"/>
</svg>
