<svg width="17" height="23" viewBox="0 0 17 23" fill="none" xmlns="http://www.w3.org/2000/svg">
<path id="Vector" d="M14.0504 2.00385C14.3115 1.38844 14.1168 0.669719 13.5812 0.27442C13.0456 -0.120878 12.3153 -0.0849422 11.8152 0.355277L0.484283 10.4174C0.0416699 10.8127 -0.117671 11.4461 0.0903573 12.0031C0.298385 12.5601 0.829521 12.9374 1.4182 12.9374H6.35333L2.94964 20.9961C2.68849 21.6116 2.88324 22.3303 3.41881 22.7256C3.95437 23.1209 4.68468 23.0849 5.18483 22.6447L16.5157 12.5826C16.9583 12.1873 17.1177 11.5539 16.9096 10.9969C16.7016 10.4399 16.1749 10.067 15.5818 10.067H10.6467L14.0504 2.00385Z" fill="#939393"/>
</svg>
