<svg width="17" height="24" viewBox="0 0 17 24" fill="none" xmlns="http://www.w3.org/2000/svg">
<path id="Vector" d="M14.0504 2.97114C14.3115 2.35573 14.1168 1.637 13.5812 1.24171C13.0456 0.846407 12.3153 0.882343 11.8152 1.32256L0.484283 11.3847C0.0416699 11.78 -0.117671 12.4134 0.0903573 12.9704C0.298385 13.5274 0.829521 13.9047 1.4182 13.9047H6.35333L2.94964 21.9634C2.68849 22.5788 2.88324 23.2976 3.41881 23.6929C3.95437 24.0882 4.68468 24.0522 5.18483 23.612L16.5157 13.5499C16.9583 13.1546 17.1177 12.5212 16.9096 11.9642C16.7016 11.4072 16.1749 11.0343 15.5818 11.0343H10.6467L14.0504 2.97114Z" fill="#939393"/>
</svg>
