<svg width="15" height="15" viewBox="0 0 15 15" fill="none" xmlns="http://www.w3.org/2000/svg">
<g id="globe-solid 1" clip-path="url(#clip0_440_205)">
<path id="Vector" d="M9.64036 7.01117C9.64036 7.61917 9.6075 8.20526 9.54999 8.76397H4.47236C4.41211 8.20526 4.38198 7.61917 4.38198 7.01117C4.38198 6.40317 4.41485 5.81708 4.47236 5.25838H9.54999C9.61024 5.81708 9.64036 6.40317 9.64036 7.01117ZM10.4291 5.25838H13.8005C13.9457 5.81982 14.0223 6.40591 14.0223 7.01117C14.0223 7.61643 13.9457 8.20252 13.8005 8.76397H10.4291C10.4866 8.19979 10.5168 7.6137 10.5168 7.01117C10.5168 6.40865 10.4866 5.82256 10.4291 5.25838ZM13.5129 4.38198H10.3168C10.043 2.63193 9.50069 1.1667 8.80231 0.230054C10.9467 0.796973 12.6913 2.35258 13.5102 4.38198H13.5129ZM9.42948 4.38198H4.59287C4.75993 3.38508 5.01737 2.50321 5.33233 1.7884C5.61989 1.14205 5.94033 0.67373 6.2498 0.377946C6.55654 0.0876397 6.81125 0 7.01117 0C7.2111 0 7.4658 0.0876397 7.77254 0.377946C8.08202 0.67373 8.40245 1.14205 8.69002 1.7884C9.00771 2.50047 9.26516 3.38234 9.42948 4.38198V4.38198ZM3.70551 4.38198H0.509406C1.33103 2.35258 3.07287 0.796973 5.22004 0.230054C4.52166 1.1667 3.97939 2.63193 3.70551 4.38198V4.38198ZM0.221838 5.25838H3.59323C3.53571 5.82256 3.50559 6.40865 3.50559 7.01117C3.50559 7.6137 3.53571 8.19979 3.59323 8.76397H0.221838C0.0766847 8.20252 0 7.61643 0 7.01117C0 6.40591 0.0766847 5.81982 0.221838 5.25838ZM5.33233 12.2312C5.01463 11.5191 4.75993 10.6373 4.59287 9.64036H9.42948C9.26242 10.6373 9.00498 11.5191 8.69002 12.2312C8.40245 12.8776 8.08202 13.3459 7.77254 13.6417C7.4658 13.9347 7.2111 14.0223 7.01117 14.0223C6.81125 14.0223 6.55654 13.9347 6.2498 13.6444C5.94033 13.3486 5.61989 12.8803 5.33233 12.2339V12.2312ZM3.70551 9.64036C3.97939 11.3904 4.52166 12.8556 5.22004 13.7923C3.07287 13.2254 1.33103 11.6698 0.509406 9.64036H3.70551ZM13.5129 9.64036C12.6913 11.6698 10.9495 13.2254 8.80505 13.7923C9.50343 12.8556 10.043 11.3904 10.3196 9.64036H13.5129V9.64036Z" fill="#686B6D"/>
</g>
<defs>
<clipPath id="clip0_440_205">
<rect width="14.0223" height="14.0223" fill="white"/>
</clipPath>
</defs>
</svg>
