<svg width="10" height="10" viewBox="0 0 10 10" fill="none" xmlns="http://www.w3.org/2000/svg">
<g id="Group 413">
<path id="Vector" d="M0 0.8125C0 0.363086 0.319196 0 0.714286 0H9.28571C9.6808 0 10 0.363086 10 0.8125C10 1.26191 9.6808 1.625 9.28571 1.625H0.714286C0.319196 1.625 0 1.26191 0 0.8125ZM0 4.875C0 4.42559 0.319196 4.0625 0.714286 4.0625H9.28571C9.6808 4.0625 10 4.42559 10 4.875C10 5.32441 9.6808 5.6875 9.28571 5.6875H0.714286C0.319196 5.6875 0 5.32441 0 4.875ZM10 8.9375C10 9.38691 9.6808 9.75 9.28571 9.75H0.714286C0.319196 9.75 0 9.38691 0 8.9375C0 8.48809 0.319196 8.125 0.714286 8.125H9.28571C9.6808 8.125 10 8.48809 10 8.9375Z" fill="#686B6D"/>
</g>
</svg>
