<svg width="20" height="15" viewBox="0 0 20 15" fill="none" xmlns="http://www.w3.org/2000/svg">
<path id="Vector" d="M8.93794 4.4681C8.93794 5.45408 8.6178 6.36489 8.07852 7.10384L10.7986 9.82551C11.0671 10.094 11.0671 10.5301 10.7986 10.7986C10.53 11.0671 10.0939 11.0671 9.82528 10.7986L7.10523 8.07694C6.36613 8.61827 5.45515 8.93619 4.46897 8.93619C2.00029 8.93619 0 6.93629 0 4.4681C0 1.9999 2.00029 0 4.46897 0C6.93764 0 8.93794 1.9999 8.93794 4.4681ZM4.46897 7.56139C6.17706 7.56139 7.56287 6.17585 7.56287 4.4681C7.56287 2.76034 6.17706 1.3748 4.46897 1.3748C2.76088 1.3748 1.37507 2.76034 1.37507 4.4681C1.37507 6.17585 2.76088 7.56139 4.46897 7.56139Z" fill="#4B4B4B"/>
</svg>
