<svg width="20" height="23" viewBox="0 0 20 23" fill="none" xmlns="http://www.w3.org/2000/svg">
<g id="lock-solid 3" clip-path="url(#clip0_440_265)">
<path id="Vector" d="M6.31006 6.31006V8.41341H13.3212V6.31006C13.3212 4.37322 11.7525 2.80447 9.81564 2.80447C7.87881 2.80447 6.31006 4.37322 6.31006 6.31006ZM3.50559 8.41341V6.31006C3.50559 2.82638 6.33197 0 9.81564 0C13.2993 0 16.1257 2.82638 16.1257 6.31006V8.41341H16.8268C18.3737 8.41341 19.6313 9.67104 19.6313 11.2179V19.6313C19.6313 21.1781 18.3737 22.4358 16.8268 22.4358H2.80447C1.25763 22.4358 0 21.1781 0 19.6313V11.2179C0 9.67104 1.25763 8.41341 2.80447 8.41341H3.50559Z" fill="white"/>
</g>
<defs>
<clipPath id="clip0_440_265">
<rect width="19.6313" height="22.4358" fill="white"/>
</clipPath>
</defs>
</svg>
