<svg width="20" height="23" viewBox="0 0 20 23" fill="none" xmlns="http://www.w3.org/2000/svg">
<g id="lock-solid 1" clip-path="url(#clip0_440_189)">
<path id="Vector" d="M6.55029 6.5V8.60335H13.5615V6.5C13.5615 4.56316 11.9927 2.99441 10.0559 2.99441C8.11904 2.99441 6.55029 4.56316 6.55029 6.5ZM3.74582 8.60335V6.5C3.74582 3.01632 6.5722 0.189941 10.0559 0.189941C13.5396 0.189941 16.3659 3.01632 16.3659 6.5V8.60335H17.0671C18.6139 8.60335 19.8715 9.86098 19.8715 11.4078V19.8212C19.8715 21.3681 18.6139 22.6257 17.0671 22.6257H3.0447C1.49786 22.6257 0.240234 21.3681 0.240234 19.8212V11.4078C0.240234 9.86098 1.49786 8.60335 3.0447 8.60335H3.74582Z" fill="#939393"/>
</g>
<defs>
<clipPath id="clip0_440_189">
<rect width="19.6313" height="22.4358" fill="white" transform="translate(0.240234 0.189941)"/>
</clipPath>
</defs>
</svg>
