<svg width="13" height="17" viewBox="0 0 13 17" fill="none" xmlns="http://www.w3.org/2000/svg">
<g id="moon-solid 3" clip-path="url(#clip0_440_281)">
<path id="Vector" d="M7.3453 1.05176C3.28649 1.05176 0 4.3481 0 8.41349C0 12.4789 3.28649 15.7752 7.3453 15.7752C9.33691 15.7752 11.1412 14.9799 12.4656 13.6916C12.63 13.5306 12.6727 13.2808 12.5675 13.077C12.4624 12.8733 12.2356 12.7582 12.0088 12.7977C11.6867 12.8535 11.3581 12.8831 11.0196 12.8831C7.83498 12.8831 5.25181 10.2934 5.25181 7.0989C5.25181 4.93639 6.43494 3.05323 8.18664 2.06071C8.38711 1.94568 8.489 1.71563 8.4397 1.49215C8.3904 1.26867 8.19978 1.10106 7.96973 1.08134C7.76268 1.0649 7.55563 1.05504 7.3453 1.05504V1.05176Z" fill="#939393"/>
</g>
<defs>
<clipPath id="clip0_440_281">
<rect width="12.6201" height="16.8268" fill="white"/>
</clipPath>
</defs>
</svg>
