<svg width="19" height="17" viewBox="0 0 19 17" fill="none" xmlns="http://www.w3.org/2000/svg">
<path id="Vector" d="M13.1944 3.1875V3.21074C13.0196 3.19746 12.8448 3.1875 12.6667 3.1875H8.44444C7.90017 3.1875 7.3724 3.25723 6.86771 3.38672C6.86441 3.32031 6.86111 3.25391 6.86111 3.1875C6.86111 1.42773 8.27951 0 10.0278 0C11.776 0 13.1944 1.42773 13.1944 3.1875ZM12.6667 4.25C12.7821 4.25 12.8976 4.25332 13.0097 4.25996C13.1483 4.26992 13.2868 4.2832 13.4253 4.30313C14.0059 3.62246 14.8701 3.1875 15.8333 3.1875H16.8889L16.2688 5.68106C16.7899 6.17246 17.2155 6.77012 17.5057 7.4375H17.9444C18.5283 7.4375 19 7.9123 19 8.5V11.6875C19 12.2752 18.5283 12.75 17.9444 12.75H16.8889C16.5887 13.1518 16.2325 13.5104 15.8333 13.8125V15.9375C15.8333 16.5252 15.3616 17 14.7778 17H13.7222C13.1384 17 12.6667 16.5252 12.6667 15.9375V14.875H8.44444V15.9375C8.44444 16.5252 7.97274 17 7.38889 17H6.33333C5.74948 17 5.27778 16.5252 5.27778 15.9375V13.8125C4.12656 12.9426 3.34149 11.6111 3.19306 10.0938H2.24306C1.00278 10.0938 0 9.08437 0 7.83594C0 6.5875 1.00278 5.57812 2.24306 5.57812H2.375C2.81372 5.57812 3.16667 5.9334 3.16667 6.375C3.16667 6.8166 2.81372 7.17188 2.375 7.17188H2.24306C1.88021 7.17188 1.58333 7.4707 1.58333 7.83594C1.58333 8.20117 1.88021 8.5 2.24306 8.5H3.27222C3.67135 6.51445 5.17552 4.93066 7.10851 4.42266C7.53403 4.30977 7.98264 4.25 8.44444 4.25H12.6667ZM14.7778 8.76562C14.7778 8.32402 14.4248 7.96875 13.9861 7.96875C13.5474 7.96875 13.1944 8.32402 13.1944 8.76562C13.1944 9.20723 13.5474 9.5625 13.9861 9.5625C14.4248 9.5625 14.7778 9.20723 14.7778 8.76562Z" fill="#EDF5FF"/>
</svg>
