<svg width="7" height="8" viewBox="0 0 7 8" fill="none" xmlns="http://www.w3.org/2000/svg">
<path id="Vector" d="M2.25056 1.10237C1.9152 1.10237 1.64426 1.33461 1.64426 1.62207C1.64426 1.90952 1.37331 2.14176 1.03795 2.14176C0.702585 2.14176 0.431641 1.90952 0.431641 1.62207C0.431641 0.761325 1.24637 0.0629883 2.25056 0.0629883H4.08844C5.41663 0.0629883 6.49472 0.987067 6.49472 2.12552C6.49472 2.97651 5.88462 3.73981 4.96 4.04838L3.76634 4.44627V4.74022C3.76634 5.02768 3.49539 5.25991 3.16003 5.25991C2.82466 5.25991 2.55372 5.02768 2.55372 4.74022V4.44627C2.55372 4.01752 2.86066 3.63263 3.32676 3.47834L4.52043 3.08045C4.97895 2.92617 5.28211 2.54777 5.28211 2.12552C5.28211 1.56035 4.7478 1.10237 4.08844 1.10237H2.25056ZM3.16003 7.33868C2.7413 7.33868 2.40214 7.04798 2.40214 6.68907C2.40214 6.33016 2.7413 6.03945 3.16003 6.03945C3.57876 6.03945 3.91791 6.33016 3.91791 6.68907C3.91791 7.04798 3.57876 7.33868 3.16003 7.33868Z" fill="#F53CA0"/>
</svg>
