<svg width="18" height="18" viewBox="0 0 18 18" fill="none" xmlns="http://www.w3.org/2000/svg">
<path id="Vector" d="M5.69847 13.2498L4.6739 12.2252C4.39207 11.9434 4.29259 11.5355 4.41859 11.1575C4.51806 10.8624 4.6507 10.4778 4.80985 10.0368H1.30179C1.01664 10.0368 0.751376 9.8843 0.608799 9.63562C0.466222 9.38694 0.469538 9.08189 0.61543 8.83652L2.3562 5.90209C2.78724 5.17594 3.56645 4.73163 4.40865 4.73163H7.13751C7.21708 4.599 7.29666 4.47631 7.37624 4.35695C10.0918 0.351525 14.137 0.218896 16.5509 0.663206C16.9355 0.732837 17.234 1.03457 17.3069 1.4192C17.7512 3.83638 17.6153 7.87827 13.6132 10.5939C13.4971 10.6734 13.3711 10.753 13.2385 10.8326V13.5615C13.2385 14.4037 12.7942 15.1862 12.068 15.6139L9.13359 17.3547C8.88822 17.5006 8.58317 17.5039 8.33449 17.3613C8.08581 17.2187 7.93328 16.9568 7.93328 16.6683V13.1138C7.46576 13.2763 7.05793 13.4089 6.74956 13.5084C6.3782 13.6278 5.97368 13.525 5.69516 13.2498H5.69847ZM13.2385 6.05793C13.9713 6.05793 14.5648 5.46441 14.5648 4.73163C14.5648 3.99885 13.9713 3.40533 13.2385 3.40533C12.5057 3.40533 11.9122 3.99885 11.9122 4.73163C11.9122 5.46441 12.5057 6.05793 13.2385 6.05793Z" fill="#767C86" fill-opacity="0.56"/>
</svg>
