<svg width="18" height="17" viewBox="0 0 18 17" fill="none" xmlns="http://www.w3.org/2000/svg">
<path id="Vector" d="M5.9973 12.7615L4.97273 11.7369C4.69089 11.4551 4.59142 11.0473 4.71742 10.6693C4.81689 10.3742 4.94952 9.98954 5.10868 9.54854H1.60062C1.31546 9.54854 1.0502 9.39602 0.907627 9.14734C0.76505 8.89866 0.768366 8.59361 0.914259 8.34824L2.65503 5.41381C3.08607 4.68766 3.86527 4.24335 4.70747 4.24335H7.43633C7.51591 4.11072 7.59549 3.98803 7.67507 3.86867C10.3907 -0.136756 14.4359 -0.269385 16.8497 0.174925C17.2344 0.244555 17.5328 0.546288 17.6057 0.930915C18.05 3.34809 17.9141 7.38999 13.912 10.1056C13.7959 10.1852 13.6699 10.2647 13.5373 10.3443V13.0732C13.5373 13.9154 13.093 14.6979 12.3668 15.1256L9.43241 16.8664C9.18705 17.0123 8.882 17.0156 8.63332 16.873C8.38464 16.7305 8.23211 16.4685 8.23211 16.18V12.6256C7.76459 12.788 7.35676 12.9207 7.04839 13.0201C6.67703 13.1395 6.27251 13.0367 5.99398 12.7615H5.9973ZM13.5373 5.56965C14.2701 5.56965 14.8636 4.97613 14.8636 4.24335C14.8636 3.51057 14.2701 2.91705 13.5373 2.91705C12.8045 2.91705 12.211 3.51057 12.211 4.24335C12.211 4.97613 12.8045 5.56965 13.5373 5.56965Z" fill="#51565D"/>
</svg>
