<svg width="22" height="22" viewBox="0 0 22 22" fill="none" xmlns="http://www.w3.org/2000/svg">
<g id="sack-dollar-solid 1" clip-path="url(#clip0_440_187)">
<path id="Vector" d="M13.3862 4.84857H8.1278L6.18056 1.9277C5.88888 1.48814 6.2011 0.904785 6.72694 0.904785H14.787C15.3129 0.904785 15.6251 1.48814 15.3334 1.9277L13.3862 4.84857ZM8.1278 6.16317H13.3862C13.5423 6.26587 13.7189 6.38089 13.9202 6.50825C16.2495 7.99949 21.2738 11.212 21.2738 17.9945C21.2738 20.1718 19.5073 21.9383 17.33 21.9383H4.18402C2.00672 21.9383 0.240234 20.1718 0.240234 17.9945C0.240234 11.212 5.26445 7.99949 7.59375 6.50825C7.79094 6.38089 7.9717 6.26587 8.1278 6.16317ZM11.5827 10.107C11.5827 9.65095 11.213 9.28122 10.757 9.28122C10.301 9.28122 9.93126 9.65095 9.93126 10.107V10.3534C9.70121 10.4027 9.48348 10.4726 9.27807 10.563C8.66186 10.8423 8.13191 11.3599 8.00045 12.1117C7.92651 12.5307 7.96759 12.9333 8.14013 13.3031C8.31267 13.6646 8.5797 13.9193 8.85083 14.1041C9.32737 14.4287 9.95591 14.6177 10.4366 14.7614L10.5269 14.7902C11.098 14.9627 11.4882 15.0942 11.7306 15.2708C11.8333 15.3448 11.8703 15.4023 11.8867 15.4393C11.899 15.4721 11.9237 15.5461 11.8949 15.7145C11.8703 15.8583 11.7922 15.9774 11.5663 16.076C11.3157 16.1828 10.909 16.2362 10.3832 16.1541C10.1367 16.113 9.6971 15.9651 9.30683 15.8295C9.21645 15.7967 9.13018 15.7679 9.04802 15.7433C8.61667 15.5995 8.15245 15.8337 8.00867 16.265C7.86489 16.6964 8.09905 17.1606 8.5304 17.3044C8.5797 17.3208 8.64132 17.3413 8.71116 17.366C9.0357 17.4769 9.5451 17.6494 9.93537 17.7398V17.9945C9.93537 18.4505 10.3051 18.8203 10.7611 18.8203C11.2171 18.8203 11.5868 18.4505 11.5868 17.9945V17.7686C11.8087 17.7275 12.0182 17.6659 12.2195 17.5796C12.8645 17.3044 13.3862 16.7703 13.5176 15.9898C13.5916 15.5625 13.5587 15.1558 13.3944 14.782C13.2342 14.4122 12.9754 14.1411 12.7001 13.9398C12.1989 13.5783 11.5375 13.377 11.0405 13.225L11.0076 13.2168C10.4242 13.0401 10.0299 12.9169 9.77926 12.7485C9.67245 12.6745 9.63959 12.6252 9.63137 12.6047C9.62316 12.5924 9.60262 12.539 9.62726 12.3993C9.63959 12.3212 9.70532 12.1857 9.96413 12.0665C10.227 11.9474 10.6379 11.8817 11.139 11.9597C11.3157 11.9885 11.8744 12.0953 12.0305 12.1364C12.4701 12.2514 12.9179 11.9926 13.037 11.553C13.1561 11.1134 12.8932 10.6657 12.4536 10.5465C12.2729 10.4972 11.8621 10.4151 11.5909 10.3658V10.107H11.5827Z" fill="#939393"/>
</g>
<defs>
<clipPath id="clip0_440_187">
<rect width="21.0335" height="21.0335" fill="white" transform="translate(0.240234 0.904785)"/>
</clipPath>
</defs>
</svg>
