<svg width="22" height="22" viewBox="0 0 22 22" fill="none" xmlns="http://www.w3.org/2000/svg">
<g id="sack-dollar-solid 3" clip-path="url(#clip0_440_263)">
<path id="Vector" d="M13.1459 3.94378H7.88757L5.94033 1.02292C5.64865 0.583352 5.96087 0 6.4867 0H14.5468C15.0727 0 15.3849 0.583352 15.0932 1.02292L13.1459 3.94378ZM7.88757 5.25838H13.1459C13.3021 5.36108 13.4787 5.47611 13.68 5.60346C16.0093 7.0947 21.0335 10.3072 21.0335 17.0897C21.0335 19.267 19.267 21.0335 17.0897 21.0335H3.94378C1.76649 21.0335 0 19.267 0 17.0897C0 10.3072 5.02422 7.0947 7.35352 5.60346C7.5507 5.47611 7.73146 5.36108 7.88757 5.25838ZM11.3425 9.20216C11.3425 8.74616 10.9728 8.37643 10.5168 8.37643C10.0608 8.37643 9.69103 8.74616 9.69103 9.20216V9.44865C9.46098 9.49795 9.24325 9.56779 9.03784 9.65817C8.42162 9.93752 7.89168 10.4551 7.76022 11.2069C7.68627 11.6259 7.72735 12.0285 7.89989 12.3983C8.07243 12.7598 8.33946 13.0145 8.6106 13.1994C9.08714 13.5239 9.71568 13.7129 10.1963 13.8567L10.2867 13.8854C10.8577 14.058 11.248 14.1894 11.4904 14.3661C11.5931 14.44 11.6301 14.4975 11.6465 14.5345C11.6588 14.5674 11.6835 14.6413 11.6547 14.8097C11.6301 14.9535 11.552 15.0727 11.3261 15.1712C11.0755 15.2781 10.6688 15.3315 10.1429 15.2493C9.89644 15.2082 9.45687 15.0603 9.0666 14.9248C8.97622 14.8919 8.88995 14.8631 8.80779 14.8385C8.37643 14.6947 7.91222 14.9289 7.76843 15.3602C7.62465 15.7916 7.85881 16.2558 8.29016 16.3996C8.33946 16.416 8.40108 16.4365 8.47092 16.4612C8.79546 16.5721 9.30487 16.7447 9.69514 16.835V17.0897C9.69514 17.5457 10.0649 17.9155 10.5209 17.9155C10.9769 17.9155 11.3466 17.5457 11.3466 17.0897V16.8638C11.5684 16.8227 11.7779 16.7611 11.9792 16.6748C12.6242 16.3996 13.146 15.8655 13.2774 15.085C13.3514 14.6577 13.3185 14.251 13.1542 13.8772C12.994 13.5075 12.7351 13.2363 12.4599 13.035C11.9587 12.6735 11.2973 12.4722 10.8002 12.3202L10.7674 12.312C10.184 12.1354 9.78962 12.0121 9.53903 11.8437C9.43222 11.7697 9.39935 11.7204 9.39114 11.6999C9.38292 11.6876 9.36238 11.6342 9.38703 11.4945C9.39935 11.4164 9.46508 11.2809 9.72389 11.1617C9.98681 11.0426 10.3976 10.9769 10.8988 11.0549C11.0755 11.0837 11.6342 11.1905 11.7903 11.2316C12.2298 11.3466 12.6776 11.0878 12.7968 10.6482C12.9159 10.2087 12.653 9.76087 12.2134 9.64173C12.0327 9.59244 11.6218 9.51027 11.3507 9.46098V9.20216H11.3425Z" fill="white"/>
</g>
<defs>
<clipPath id="clip0_440_263">
<rect width="21.0335" height="21.0335" fill="white"/>
</clipPath>
</defs>
</svg>
