<svg width="23" height="20" viewBox="0 0 23 20" fill="none" xmlns="http://www.w3.org/2000/svg">
<path id="Vector" d="M2.55556 0C1.14601 0 0 1.12109 0 2.5V16.25C0 17.6289 1.14601 18.75 2.55556 18.75H3.19444L3.83333 20H6.38889L7.02778 18.75H15.9722L16.6111 20H19.1667L19.8056 18.75H20.4444C21.854 18.75 23 17.6289 23 16.25V2.5C23 1.12109 21.854 0 20.4444 0H2.55556ZM8.94444 12.5C10.7094 12.5 12.1389 11.1016 12.1389 9.375C12.1389 7.64844 10.7094 6.25 8.94444 6.25C7.17951 6.25 5.75 7.64844 5.75 9.375C5.75 11.1016 7.17951 12.5 8.94444 12.5ZM8.94444 15.625C5.41458 15.625 2.55556 12.8281 2.55556 9.375C2.55556 5.92187 5.41458 3.125 8.94444 3.125C12.4743 3.125 15.3333 5.92187 15.3333 9.375C15.3333 12.8281 12.4743 15.625 8.94444 15.625ZM19.1667 8.64453V13.125C19.1667 13.4688 18.8792 13.75 18.5278 13.75C18.1764 13.75 17.8889 13.4688 17.8889 13.125V8.64453C17.1462 8.38672 16.6111 7.69141 16.6111 6.875C16.6111 5.83984 17.4696 5 18.5278 5C19.5859 5 20.4444 5.83984 20.4444 6.875C20.4444 7.69141 19.9094 8.38672 19.1667 8.64453Z" fill="#EDF5FF"/>
</svg>
