<svg width="16" height="18" viewBox="0 0 16 18" fill="none" xmlns="http://www.w3.org/2000/svg">
<path id="Vector" d="M8.0125 0.488281C8.16502 0.488281 8.31754 0.521439 8.45681 0.584438L14.7004 3.23372C15.4298 3.54208 15.9736 4.2616 15.9703 5.13033C15.9537 8.41955 14.6009 14.4376 8.88454 17.1731C8.33081 17.4384 7.68755 17.4384 7.13382 17.1731C1.42411 14.4376 0.0712813 8.41955 0.0547026 5.13033C0.0513868 4.2616 0.595169 3.54208 1.32463 3.23372L7.5715 0.584438C7.70745 0.521439 7.85997 0.488281 8.0125 0.488281ZM8.0125 2.7032V15.2367C12.5882 13.0218 13.8184 8.11782 13.8482 5.17675L8.0125 2.7032Z" fill="#767C86" fill-opacity="0.56"/>
</svg>
