<svg width="17" height="17" viewBox="0 0 17 17" fill="none" xmlns="http://www.w3.org/2000/svg">
<path id="Vector" d="M8.31132 0C8.46385 0 8.61637 0.0331575 8.75563 0.0961567L14.9992 2.74544C15.7287 3.0538 16.2724 3.77332 16.2691 4.64205C16.2525 7.93127 14.8997 13.9493 9.18337 16.6848C8.62964 16.9501 7.98638 16.9501 7.43265 16.6848C1.72293 13.9493 0.370109 7.93127 0.353531 4.64205C0.350215 3.77332 0.893997 3.0538 1.62346 2.74544L7.87033 0.0961567C8.00628 0.0331575 8.1588 0 8.31132 0ZM8.31132 2.21492V14.7484C12.8871 12.5335 14.1172 7.62953 14.147 4.68847L8.31132 2.21492Z" fill="#51565D"/>
</svg>
