<svg width="19" height="14" viewBox="0 0 19 14" fill="none" xmlns="http://www.w3.org/2000/svg">
<path id="Vector" d="M15.55 0.580206C17.3945 2.08082 18.574 4.36868 18.574 6.93223C18.574 9.49578 17.3945 11.7865 15.55 13.2843C15.2573 13.523 14.8282 13.4775 14.5894 13.1848C14.3507 12.8921 14.3962 12.4629 14.6889 12.2242C16.2293 10.9737 17.2098 9.06947 17.2098 6.93223C17.2098 4.79499 16.2293 2.89081 14.6889 1.63746C14.3962 1.39872 14.3535 0.969569 14.5894 0.676836C14.8253 0.384103 15.2573 0.341472 15.55 0.577364V0.580206ZM13.8306 2.69755C15.0584 3.69796 15.8456 5.22415 15.8456 6.93223C15.8456 8.64031 15.0584 10.1665 13.8306 11.1669C13.5379 11.4056 13.1087 11.3602 12.87 11.0674C12.6312 10.7747 12.6767 10.3456 12.9694 10.1068C13.8931 9.35652 14.4814 8.214 14.4814 6.93223C14.4814 5.65046 13.8931 4.50795 12.9694 3.7548C12.6767 3.51606 12.6341 3.08691 12.87 2.79418C13.1059 2.50144 13.5379 2.45881 13.8306 2.69471V2.69755ZM12.1111 4.81489C12.7222 5.31509 13.1172 6.07677 13.1172 6.93223C13.1172 7.78769 12.7222 8.54937 12.1111 9.04957C11.8184 9.28831 11.3893 9.24283 11.1505 8.9501C10.9118 8.65737 10.9573 8.22822 11.25 7.98948C11.5569 7.73938 11.753 7.35854 11.753 6.93223C11.753 6.50592 11.5569 6.12508 11.25 5.87214C10.9573 5.63341 10.9146 5.20425 11.1505 4.91152C11.3864 4.61879 11.8184 4.57616 12.1111 4.81205V4.81489ZM8.94224 0.645573C9.26907 0.793361 9.47939 1.11736 9.47939 1.47546V12.389C9.47939 12.7471 9.26907 13.0711 8.94224 13.2189C8.6154 13.3667 8.23172 13.307 7.96456 13.0683L4.13061 9.66062H2.20369C1.20044 9.66062 0.384766 8.84494 0.384766 7.84169V6.02277C0.384766 5.01952 1.20044 4.20384 2.20369 4.20384H4.13061L7.96456 0.796203C8.23172 0.557469 8.6154 0.500628 8.94224 0.645573Z" fill="#51565D"/>
</svg>
