<svg width="19" height="14" viewBox="0 0 19 14" fill="none" xmlns="http://www.w3.org/2000/svg">
<path id="Vector" d="M15.2512 1.06849C17.0957 2.5691 18.2752 4.85697 18.2752 7.42051C18.2752 9.98406 17.0957 12.2748 15.2512 13.7725C14.9585 14.0113 14.5293 13.9658 14.2906 13.6731C14.0519 13.3803 14.0973 12.9512 14.3901 12.7124C15.9305 11.4619 16.911 9.55775 16.911 7.42051C16.911 5.28328 15.9305 3.37909 14.3901 2.12574C14.0973 1.887 14.0547 1.45785 14.2906 1.16512C14.5265 0.872384 14.9585 0.829753 15.2512 1.06565V1.06849ZM13.5318 3.18583C14.7595 4.18624 15.5468 5.71243 15.5468 7.42051C15.5468 9.1286 14.7595 10.6548 13.5318 11.6552C13.239 11.8939 12.8099 11.8485 12.5711 11.5557C12.3324 11.263 12.3779 10.8338 12.6706 10.5951C13.5943 9.8448 14.1826 8.70229 14.1826 7.42051C14.1826 6.13874 13.5943 4.99623 12.6706 4.24308C12.3779 4.00434 12.3353 3.57519 12.5711 3.28246C12.807 2.98973 13.239 2.94709 13.5318 3.18299V3.18583ZM11.8123 5.30317C12.4234 5.80337 12.8184 6.56505 12.8184 7.42051C12.8184 8.27598 12.4234 9.03765 11.8123 9.53785C11.5196 9.77659 11.0904 9.73112 10.8517 9.43838C10.613 9.14565 10.6584 8.7165 10.9512 8.47776C11.2581 8.22766 11.4542 7.84682 11.4542 7.42051C11.4542 6.9942 11.2581 6.61336 10.9512 6.36042C10.6584 6.12169 10.6158 5.69253 10.8517 5.3998C11.0876 5.10707 11.5196 5.06444 11.8123 5.30033V5.30317ZM8.64341 1.13385C8.97025 1.28164 9.18056 1.60564 9.18056 1.96374V12.8773C9.18056 13.2354 8.97025 13.5594 8.64341 13.7072C8.31657 13.855 7.93289 13.7953 7.66574 13.5565L3.83178 10.1489H1.90486C0.901611 10.1489 0.0859375 9.33323 0.0859375 8.32998V6.51105C0.0859375 5.5078 0.901611 4.69213 1.90486 4.69213H3.83178L7.66574 1.28448C7.93289 1.04575 8.31657 0.988909 8.64341 1.13385Z" fill="#F53CA0"/>
</svg>
